<svg width="16" height="16" viewBox="0 0 16 16"  xmlns="http://www.w3.org/2000/svg">
<path fill-rule="evenodd" clip-rule="evenodd" d="M8 5C8 6.36163 7.09287 7.51138 5.84998 7.87789V9.5H8V11H5.84998V14H4.34998V11H2V9.5H4.34998V7.92939C3.00563 7.63242 2 6.43365 2 5C2 3.34315 3.34315 2 5 2C6.65685 2 8 3.34315 8 5ZM11.75 5V8.09451C13.0439 8.42755 14 9.60212 14 11C14 12.6569 12.6569 14 11 14C9.34315 14 8 12.6569 8 11C8 9.60212 8.95608 8.42755 10.25 8.09451V5H8L11 2L14 5H11.75Z" fill="#C0C6CF"/>
</svg>
