<?xml version="1.0" standalone="no"?><!DOCTYPE svg PUBLIC "-//W3C//DTD SVG 1.1//EN" "http://www.w3.org/Graphics/SVG/1.1/DTD/svg11.dtd"><svg t="1660024401265" class="icon" viewBox="0 0 1024 1024" version="1.1" xmlns="http://www.w3.org/2000/svg" p-id="1987" xmlns:xlink="http://www.w3.org/1999/xlink" width="200" height="200"><defs><style type="text/css">@font-face { font-family: feedback-iconfont; src: url("//at.alicdn.com/t/font_1031158_u69w8yhxdu.woff2?t=1630033759944") format("woff2"), url("//at.alicdn.com/t/font_1031158_u69w8yhxdu.woff?t=1630033759944") format("woff"), url("//at.alicdn.com/t/font_1031158_u69w8yhxdu.ttf?t=1630033759944") format("truetype"); }
</style></defs><path d="M898.59 839.44c0 32.9-26.67 59.56-59.56 59.56H183.88c-32.9 0-59.56-26.66-59.56-59.56V184.29c0-32.9 26.66-59.56 59.56-59.56h655.15c32.9 0 59.56 26.66 59.56 59.56v655.15zM839.03 65.17H183.88c-65.78 0-119.12 53.34-119.12 119.12v655.15c0 65.79 53.34 119.12 119.12 119.12h655.15c65.79 0 119.12-53.33 119.12-119.12V184.29c0-65.78-53.33-119.12-119.12-119.12z" p-id="1988" fill="#bfbfbf"></path></svg>